<svg width="502" height="480" viewBox="0 0 502 480" fill="none" xmlns="http://www.w3.org/2000/svg">
<rect x="153" y="44" width="196" height="196" rx="98" fill="#3098F3"/>
<path d="M251.001 190.483C277.778 190.483 299.485 168.776 299.485 141.998C299.485 115.221 277.778 93.5136 251.001 93.5136C224.223 93.5136 202.516 115.221 202.516 141.998C202.516 168.776 224.223 190.483 251.001 190.483Z" fill="#F2EAE2"/>
<path d="M271.407 157.171C271.407 157.171 256.63 169.876 237.477 163.354" stroke="#082C4E" stroke-width="1.5" stroke-miterlimit="10" stroke-linecap="round" stroke-linejoin="round"/>
<path d="M245.981 134.066L238.496 150.313L246.956 153.51" stroke="#082C4E" stroke-width="1.5" stroke-miterlimit="10" stroke-linecap="round" stroke-linejoin="round"/>
<path d="M236.303 141.665C242.887 140.856 247.569 134.864 246.76 128.28C245.952 121.696 239.96 117.014 233.376 117.822C226.792 118.631 222.11 124.623 222.918 131.207C223.727 137.791 229.719 142.473 236.303 141.665Z" stroke="#082C4E" stroke-width="1.5" stroke-miterlimit="10" stroke-linecap="round" stroke-linejoin="round"/>
<path d="M266.521 141.385C273.105 140.576 277.787 134.584 276.979 128C276.17 121.416 270.178 116.734 263.594 117.543C257.01 118.351 252.328 124.344 253.136 130.927C253.945 137.511 259.937 142.193 266.521 141.385Z" stroke="#082C4E" stroke-width="1.5" stroke-miterlimit="10" stroke-linecap="round" stroke-linejoin="round"/>
<path d="M247.824 130.366L253.039 130.129" stroke="#082C4E" stroke-width="1.5" stroke-miterlimit="10" stroke-linecap="round" stroke-linejoin="round"/>
<rect x="44" y="240" width="196" height="196" rx="98" fill="#FE6571"/>
<path d="M141.815 360.625C161.768 360.625 177.943 344.444 177.943 324.483C177.943 304.522 161.768 288.34 141.815 288.34C121.862 288.34 105.687 304.522 105.687 324.483C105.687 344.444 121.862 360.625 141.815 360.625Z" fill="#FFCC00"/>
<path d="M125.557 356.105H158.073L155.059 374.198C154.713 376.271 152.922 377.791 150.823 377.791H132.807C130.708 377.791 128.917 376.271 128.572 374.198L125.557 356.105Z" fill="#FFCC00"/>
<path d="M158.373 370.089L125.793 371.812" stroke="#082C4E" stroke-width="2" stroke-miterlimit="10" stroke-linecap="round" stroke-linejoin="round"/>
<path d="M158.395 365.187L125.77 365.419" stroke="#082C4E" stroke-width="2" stroke-miterlimit="10" stroke-linecap="round" stroke-linejoin="round"/>
<rect x="262" y="240" width="196" height="196" rx="98" fill="#FFCC00"/>
<path d="M359.683 288.558L402.543 313.274V362.704L359.683 387.419L316.822 362.704V313.274L359.683 288.558Z" fill="#3098F3"/>
<path d="M359.683 320.193C369.522 320.193 377.499 328.16 377.499 337.988C377.499 347.816 369.522 355.783 359.683 355.783C349.843 355.783 341.866 347.816 341.866 337.988C341.866 328.16 349.843 320.193 359.683 320.193Z" fill="#FFCC00"/>
<path d="M359.676 360.565C372.614 360.565 383.101 350.111 383.101 337.215C383.101 324.318 372.614 313.864 359.676 313.864C346.739 313.864 336.251 324.318 336.251 337.215C336.251 350.111 346.739 360.565 359.676 360.565Z" stroke="#082C4E" stroke-width="2" stroke-miterlimit="10" stroke-linecap="round" stroke-linejoin="round"/>
</svg>
