<svg width="24" height="144" viewBox="0 0 24 144" fill="none" xmlns="http://www.w3.org/2000/svg">
<path d="M12 2.775C15 2.775 15.3593 2.78625 16.5458 2.84025C17.7897 2.79786 19.0018 3.23835 19.9282 4.0695C20.7594 4.99598 21.1999 6.20807 21.1575 7.452C21.2115 8.64075 21.225 9 21.225 12C21.225 15 21.2137 15.3593 21.1597 16.5458C21.2021 17.7897 20.7617 19.0018 19.9305 19.9282C19.0041 20.7595 17.792 21.1999 16.548 21.1575C15.3615 21.2115 15.006 21.2228 12.0023 21.2228C8.9985 21.2228 8.643 21.2115 7.4565 21.1575C6.21257 21.1999 5.00047 20.7594 4.074 19.9282C3.24278 19.0019 2.80228 17.7897 2.84475 16.5458C2.7885 15.3593 2.775 15.0037 2.775 12C2.775 8.99625 2.78625 8.64075 2.84025 7.45425C2.79786 6.21032 3.23835 4.99822 4.0695 4.07175C4.99654 3.24005 6.20955 2.79952 7.45425 2.8425C8.64075 2.7885 9 2.775 12 2.775ZM12 0.75C8.94525 0.75 8.562 0.76275 7.36125 0.8175C5.60935 0.786083 3.91427 1.43909 2.63625 2.63775C1.43739 3.91565 0.784343 5.61082 0.816 7.36275C0.76275 8.562 0.75 8.94525 0.75 12C0.75 15.0548 0.76275 15.438 0.8175 16.6388C0.786083 18.3907 1.43909 20.0858 2.63775 21.3638C3.91565 22.5626 5.61082 23.2157 7.36275 23.184C8.56275 23.2388 8.94675 23.2515 12.0015 23.2515C15.0563 23.2515 15.4395 23.2388 16.6403 23.184C18.3922 23.2154 20.0872 22.5624 21.3652 21.3638C22.5641 20.0858 23.2171 18.3907 23.1855 16.6388C23.2402 15.4387 23.253 15.0548 23.253 12C23.253 8.94525 23.2402 8.562 23.1855 7.36125C23.2169 5.60935 22.5639 3.91427 21.3652 2.63625C20.0873 1.43739 18.3922 0.784343 16.6403 0.816C15.438 0.76275 15.0548 0.75 12 0.75Z" fill="white"/>
<path d="M12 6.22559C10.8578 6.22559 9.74129 6.56429 8.79156 7.19885C7.84184 7.83345 7.10167 8.73533 6.66458 9.79058C6.22748 10.8458 6.11312 12.007 6.33594 13.1273C6.55877 14.2474 7.10879 15.2764 7.91646 16.0841C8.72406 16.8918 9.75306 17.4418 10.8733 17.6646C11.9935 17.8874 13.1548 17.7731 14.21 17.336C15.2652 16.8989 16.1671 16.1587 16.8017 15.209C17.4363 14.2593 17.775 13.1428 17.775 12.0006C17.775 10.4689 17.1665 9.00008 16.0835 7.91708C15.0005 6.83402 13.5316 6.22559 12 6.22559ZM12 15.7506C11.2583 15.7506 10.5333 15.5306 9.91656 15.1186C9.29991 14.7065 8.81924 14.1209 8.53544 13.4356C8.25164 12.7505 8.17731 11.9964 8.32206 11.269C8.46674 10.5416 8.82389 9.87338 9.34836 9.3489C9.87276 8.8245 10.5409 8.46735 11.2684 8.32268C11.9958 8.17793 12.7498 8.25218 13.435 8.53605C14.1202 8.81985 14.7059 9.30053 15.118 9.91718C15.53 10.5339 15.75 11.2589 15.75 12.0006C15.75 12.9952 15.3549 13.949 14.6516 14.6522C13.9483 15.3555 12.9946 15.7506 12 15.7506Z" fill="white"/>
<path d="M18.0053 7.34502C18.7508 7.34502 19.3553 6.7406 19.3553 5.99502C19.3553 5.24944 18.7508 4.64502 18.0053 4.64502C17.2597 4.64502 16.6553 5.24944 16.6553 5.99502C16.6553 6.7406 17.2597 7.34502 18.0053 7.34502Z" fill="white"/>
<path fill-rule="evenodd" clip-rule="evenodd" d="M12 104C5.4 104 0 98.6 0 92C0 85.4 5.4 80 12 80C18.6 80 24 85.4 24 92C24 98.6 18.6 104 12 104ZM22.125 93.65C21.75 93.5 18.975 92.675 15.75 93.2C17.1 96.875 17.625 99.875 17.775 100.475C20.025 98.975 21.675 96.5 22.125 93.65ZM15.975 101.45C15.825 100.55 15.225 97.4 13.8 93.65H13.725C7.95 95.675 5.85 99.65 5.7 100.025C7.425 101.375 9.6 102.2 12 102.2C13.425 102.275 14.775 101.975 15.975 101.45ZM4.35 98.9C4.575 98.525 7.425 93.875 12.675 92.15C12.825 92.075 12.975 92.075 13.05 92C12.825 91.4 12.525 90.8 12.225 90.275C7.125 91.775 2.175 91.775 1.725 91.7C1.725 91.775 1.725 91.925 1.725 92C1.725 94.625 2.775 97.025 4.35 98.9ZM1.95 89.9C2.4 89.9 6.6 89.9 11.4 88.625C9.675 85.625 7.875 83.075 7.575 82.7C4.8 84.125 2.625 86.75 1.95 89.9ZM9.6 82.025C9.9 82.4 11.775 84.95 13.425 88.025C17.1 86.675 18.6 84.575 18.825 84.35C17.025 82.775 14.625 81.8 12 81.8C11.175 81.8 10.35 81.875 9.6 82.025ZM19.95 85.55C19.725 85.85 18 88.025 14.25 89.6C14.475 90.125 14.7 90.575 14.925 91.1C15 91.25 15.075 91.475 15.15 91.625C18.525 91.175 21.975 91.85 22.275 91.925C22.2 89.525 21.375 87.275 19.95 85.55Z" fill="white"/>
<path d="M21.75 120.75H2.25C1.85218 120.75 1.47065 120.908 1.18934 121.189C0.908033 121.471 0.75 121.852 0.75 122.25V141.75C0.75 142.148 0.908033 142.529 1.18934 142.811C1.47065 143.092 1.85218 143.25 2.25 143.25H21.75C22.1478 143.25 22.5293 143.092 22.8106 142.811C23.092 142.529 23.25 142.148 23.25 141.75V122.25C23.25 121.852 23.092 121.471 22.8106 121.189C22.5293 120.908 22.1478 120.75 21.75 120.75ZM7.41525 139.945H4.0305V129.188H7.41525V139.945ZM5.7225 127.711C5.33338 127.71 4.95333 127.593 4.63036 127.376C4.30739 127.159 4.05598 126.851 3.9079 126.491C3.7598 126.131 3.72167 125.736 3.79832 125.354C3.87496 124.973 4.06293 124.623 4.3385 124.348C4.61407 124.073 4.96488 123.886 5.34661 123.811C5.72835 123.735 6.12389 123.775 6.48328 123.924C6.84268 124.073 7.1498 124.325 7.36587 124.649C7.5819 124.972 7.69725 125.353 7.69725 125.742C7.69732 126.001 7.64633 126.258 7.54703 126.497C7.44774 126.736 7.30219 126.954 7.11872 127.136C6.93524 127.319 6.71747 127.464 6.47787 127.563C6.23827 127.661 5.98157 127.712 5.7225 127.711ZM19.9657 139.945H16.65V134.742C16.65 133.477 16.65 131.93 14.8875 131.93C13.125 131.93 12.9127 133.266 12.9127 134.672V140.016H9.6V129.188H12.702V130.664H12.7725C13.0925 130.111 13.5567 129.655 14.1156 129.346C14.6746 129.036 15.3071 128.884 15.9457 128.906C19.3305 128.906 19.965 131.156 19.965 134.039L19.9657 139.945Z" fill="white"/>
<path d="M21.75 40.75H2.25C1.85218 40.75 1.47065 40.908 1.18934 41.1893C0.908033 41.4706 0.75 41.8522 0.75 42.25V61.75C0.75 62.1478 0.908033 62.5293 1.18934 62.8106C1.47065 63.092 1.85218 63.25 2.25 63.25H21.75C22.1478 63.25 22.5293 63.092 22.8106 62.8106C23.092 62.5293 23.25 62.1478 23.25 61.75V42.25C23.25 41.8522 23.092 41.4706 22.8106 41.1893C22.5293 40.908 22.1478 40.75 21.75 40.75ZM19.4422 46.081L18.2355 47.2375C18.1843 47.2764 18.1448 47.3285 18.1211 47.3883C18.0975 47.448 18.0906 47.5131 18.1012 47.5765V56.0778C18.0905 56.1411 18.0973 56.2062 18.121 56.266C18.1447 56.3258 18.1843 56.3779 18.2355 56.4167L19.4137 57.574V57.8275H13.4888V57.574L14.709 56.3875C14.8298 56.2675 14.8298 56.2323 14.8298 56.0485V49.1778L11.4352 57.8027H10.977L7.02225 49.1778V54.9528C7.00628 55.0726 7.0177 55.1946 7.05562 55.3094C7.09356 55.4242 7.15702 55.529 7.24125 55.6157L8.829 57.541V57.7952H4.329V57.541L5.91675 55.6157C6.00027 55.5289 6.06229 55.4237 6.09785 55.3085C6.13339 55.1934 6.14149 55.0716 6.1215 54.9528V48.2733C6.13041 48.182 6.11774 48.0899 6.08453 48.0044C6.0513 47.919 5.99846 47.8425 5.93025 47.7812L4.51725 46.081V45.8275H8.8995L12.2865 53.2525L15.2648 45.8275H19.4415L19.4422 46.081Z" fill="white"/>
</svg>
